<svg width="512" height="512" viewBox="0 0 512 512" xmlns="http://www.w3.org/2000/svg">
  <!-- Background Circle -->
  <circle cx="256" cy="256" r="256" fill="url(#gradient1)"/>
  
  <!-- Gradient Definitions -->
  <defs>
    <linearGradient id="gradient1" x1="0%" y1="0%" x2="100%" y2="100%">
      <stop offset="0%" style="stop-color:#D4A574;stop-opacity:1" />
      <stop offset="100%" style="stop-color:#1E3A5F;stop-opacity:1" />
    </linearGradient>
    
    <linearGradient id="gradient2" x1="0%" y1="0%" x2="100%" y2="100%">
      <stop offset="0%" style="stop-color:#FFFFFF;stop-opacity:1" />
      <stop offset="100%" style="stop-color:#F8F9FA;stop-opacity:0.9" />
    </linearGradient>
    
    <linearGradient id="gradient3" x1="0%" y1="0%" x2="100%" y2="100%">
      <stop offset="0%" style="stop-color:#D4A574;stop-opacity:1" />
      <stop offset="100%" style="stop-color:#F59E0B;stop-opacity:1" />
    </linearGradient>
  </defs>
  
  <!-- Main Building -->
  <rect x="180" y="180" width="152" height="220" rx="8" ry="8" fill="url(#gradient2)" stroke="#D4A574" stroke-width="3"/>
  
  <!-- Building Details -->
  <!-- Windows Row 1 -->
  <rect x="200" y="200" width="20" height="25" rx="2" fill="#1E3A5F" opacity="0.8"/>
  <rect x="230" y="200" width="20" height="25" rx="2" fill="#1E3A5F" opacity="0.6"/>
  <rect x="260" y="200" width="20" height="25" rx="2" fill="#1E3A5F" opacity="0.8"/>
  <rect x="290" y="200" width="20" height="25" rx="2" fill="#1E3A5F" opacity="0.6"/>
  
  <!-- Windows Row 2 -->
  <rect x="200" y="240" width="20" height="25" rx="2" fill="#1E3A5F" opacity="0.6"/>
  <rect x="230" y="240" width="20" height="25" rx="2" fill="#1E3A5F" opacity="0.8"/>
  <rect x="260" y="240" width="20" height="25" rx="2" fill="#1E3A5F" opacity="0.6"/>
  <rect x="290" y="240" width="20" height="25" rx="2" fill="#1E3A5F" opacity="0.8"/>
  
  <!-- Windows Row 3 -->
  <rect x="200" y="280" width="20" height="25" rx="2" fill="#1E3A5F" opacity="0.8"/>
  <rect x="230" y="280" width="20" height="25" rx="2" fill="#1E3A5F" opacity="0.6"/>
  <rect x="260" y="280" width="20" height="25" rx="2" fill="#1E3A5F" opacity="0.8"/>
  <rect x="290" y="280" width="20" height="25" rx="2" fill="#1E3A5F" opacity="0.6"/>
  
  <!-- Entrance Door -->
  <rect x="240" y="350" width="32" height="45" rx="4" fill="url(#gradient3)"/>
  <circle cx="265" cy="372" r="2" fill="#1E3A5F"/>
  
  <!-- Roof -->
  <polygon points="170,185 256,120 342,185 330,185 256,135 182,185" fill="url(#gradient3)"/>
  
  <!-- Crown/Premium Symbol -->
  <g transform="translate(256,80)">
    <polygon points="-15,-10 0,-25 15,-10 10,-5 5,-15 0,-10 -5,-15 -10,-5" fill="#F59E0B"/>
    <circle cx="0" cy="-18" r="3" fill="#D4A574"/>
    <circle cx="-8" cy="-12" r="2" fill="#D4A574"/>
    <circle cx="8" cy="-12" r="2" fill="#D4A574"/>
  </g>
  
  <!-- Balconies -->
  <rect x="195" y="225" width="30" height="4" fill="#D4A574" opacity="0.8"/>
  <rect x="285" y="225" width="30" height="4" fill="#D4A574" opacity="0.8"/>
  <rect x="195" y="305" width="30" height="4" fill="#D4A574" opacity="0.8"/>
  <rect x="285" y="305" width="30" height="4" fill="#D4A574" opacity="0.8"/>
  
  <!-- Location Pin -->
  <g transform="translate(380,380)">
    <circle cx="0" cy="0" r="25" fill="#27AE60" opacity="0.9"/>
    <path d="M0,-15 L8,0 L0,8 L-8,0 Z" fill="#FFFFFF"/>
    <circle cx="0" cy="-2" r="5" fill="#FFFFFF" opacity="0.8"/>
  </g>
  
  <!-- Luxury Stars -->
  <g transform="translate(150,120)">
    <polygon points="0,-8 2,-2 8,-2 3,1 5,7 0,4 -5,7 -3,1 -8,-2 -2,-2" fill="#F59E0B" opacity="0.8"/>
  </g>
  
  <g transform="translate(350,140)">
    <polygon points="0,-6 1.5,-1.5 6,-1.5 2.25,0.75 3.75,5.25 0,3 -3.75,5.25 -2.25,0.75 -6,-1.5 -1.5,-1.5" fill="#F59E0B" opacity="0.6"/>
  </g>
  
  <!-- Text "DLS" at bottom -->
  <text x="256" y="460" font-family="Inter, sans-serif" font-size="36" font-weight="bold" text-anchor="middle" fill="#FFFFFF" opacity="0.9">DLS</text>
</svg>
